
<svg width="40" height="40" viewBox="0 0 40 40" fill="none" xmlns="http://www.w3.org/2000/svg">
<path fill-rule="evenodd" clip-rule="evenodd" d="M20.0138 3.61105C10.79 3.61105 3.33337 11.1226 3.33337 20.4155C3.33337 27.8437 8.11107 34.1316 14.739 36.357C15.5677 36.5243 15.8712 35.9955 15.8712 35.5506C15.8712 35.161 15.8439 33.8256 15.8439 32.4343C11.2038 33.4361 10.2375 30.4311 10.2375 30.4311C9.49184 28.4836 8.38695 27.983 8.38695 27.983C6.86825 26.9536 8.49758 26.9536 8.49758 26.9536C10.1822 27.0649 11.0662 28.6785 11.0662 28.6785C12.5572 31.2379 14.9599 30.5148 15.9265 30.0695C16.0645 28.9844 16.5066 28.2333 16.9761 27.8161C13.2753 27.4265 9.38155 25.9798 9.38155 19.525C9.38155 17.6888 10.0439 16.1864 11.0935 15.0181C10.9279 14.6008 10.3478 12.8755 11.2594 10.5664C11.2594 10.5664 12.6679 10.1212 15.8435 12.2914C17.2032 11.9235 18.6053 11.7364 20.0138 11.7348C21.4223 11.7348 22.858 11.9298 24.1838 12.2914C27.3598 10.1212 28.7682 10.5664 28.7682 10.5664C29.6799 12.8755 29.0994 14.6008 28.9338 15.0181C30.011 16.1864 30.6461 17.6888 30.6461 19.525C30.6461 25.9798 26.7524 27.3985 23.0239 27.8161C23.6317 28.3446 24.1561 29.346 24.1561 30.932C24.1561 33.1855 24.1288 34.994 24.1288 35.5502C24.1288 35.9955 24.4327 36.5243 25.261 36.3574C31.8889 34.1312 36.6666 27.8437 36.6666 20.4155C36.694 11.1226 29.21 3.61105 20.0138 3.61105Z" fill="white"/>
</svg>
