<svg width="148" height="97" viewBox="0 0 148 97" fill="none" xmlns="http://www.w3.org/2000/svg">
<path d="M92.2042 51.1372C91.8865 51.3993 91.6621 51.7255 91.4303 52.0124C90.4538 53.3318 89.5238 54.6832 88.7264 56.0915C88.3066 56.9013 87.8008 57.6862 87.3488 58.5426C86.7832 59.664 86.2248 60.8248 85.7523 62.0104C85.3615 62.9775 85.0566 63.9694 84.6731 64.9758C84.485 65.4987 84.2648 66.0682 84.0839 66.6304C83.9206 67.0673 83.7572 67.5043 83.6332 67.934C83.499 68.5282 83.2322 69.0657 83.012 69.6351C82.9128 69.9789 82.7204 70.2585 82.528 70.5381C82.3356 70.8177 82.082 70.9866 81.7673 71.0447C81.6887 71.0593 81.5707 71.0811 81.4454 71.0635C80.9516 71.0327 80.554 70.8621 80.1987 70.4803C79.8041 70.1058 79.5202 69.6701 79.2684 69.1878C78.6134 67.8445 78.1158 66.472 77.7682 65.0312C77.537 64.2197 77.3523 63.4403 77.1065 62.5501C76.8965 62.955 76.7259 63.3526 76.5553 63.7502C75.9661 65.4048 75.5488 67.109 75.1708 68.8059C74.7535 70.5101 74.4542 72.1925 74.1621 73.9142C74.0321 74.7518 73.9808 75.5748 73.8508 76.4123C73.6229 78.0409 73.8028 79.6754 73.7002 81.3214C73.6779 82.3018 73.695 83.2749 73.6727 84.2552C73.6565 84.8277 73.6795 85.3929 73.6167 85.9333C73.4952 87.2574 73.5704 88.5452 73.6063 89.8402C73.6046 90.4914 73.2228 90.8467 72.7508 90.9339C72.5934 90.9629 72.4682 90.9454 72.3036 90.9351C71.8418 90.8577 71.5156 90.6333 71.2856 90.269C70.9479 89.7619 70.7674 89.2258 70.6191 88.643C70.5101 88.053 70.3545 87.4309 70.2455 86.8409C70.0274 85.6609 69.8488 84.4736 69.7415 83.2324C69.6427 82.4778 69.5761 81.6766 69.556 80.9074C69.468 78.8899 69.4265 76.9043 69.4565 74.865C69.492 73.516 69.5276 72.1671 69.649 70.843C69.7529 69.6442 69.7782 68.4599 69.8894 67.3004C70.0797 65.028 70.1913 62.7702 70.5142 60.5546C70.7246 59.0514 70.9816 57.5802 71.3566 56.0872C71.6935 55.0487 71.9445 53.9854 72.4926 52.9893C72.653 52.7563 72.7667 52.4912 72.9736 52.2903C73.2447 51.9961 73.5769 51.8127 73.9309 51.7473C74.2456 51.6892 74.5355 51.717 74.8865 51.8555C75.6351 52.1646 76.2379 52.7854 76.376 53.5328C76.4342 53.8475 76.4064 54.1373 76.3072 54.4811C76.0271 55.387 75.7864 56.2857 75.5456 57.1844C75.3968 57.7 75.3267 58.2011 75.21 58.6701C74.9342 59.8194 74.8623 60.9716 74.6652 62.1063C74.6652 62.1063 74.6331 62.1529 74.6404 62.1922C74.6477 62.2316 74.6943 62.2636 74.7409 62.2957C74.8255 61.8733 74.9102 61.4509 75.0415 61.0605C75.2151 60.459 75.4207 59.8108 75.6337 59.202C75.7081 58.9442 75.8684 58.7112 76.036 58.5175C76.2429 58.3166 76.4965 58.1477 76.7325 58.1041C76.8111 58.0896 76.8971 58.1144 76.9757 58.0998C78.1528 58.0858 78.8488 58.7707 79.3524 59.7352C79.6333 60.3749 79.8428 61.0683 80.0523 61.7618C80.2006 62.3446 80.3169 62.9739 80.5046 63.5494C80.9526 65.0937 81.2826 66.6598 81.7452 68.2828C81.8764 67.8924 82.0616 67.5735 82.1608 67.2297C82.4874 66.3559 82.7675 65.4499 83.1335 64.5687C83.3785 63.9133 83.5769 63.2258 83.7826 62.5777C84.1092 61.7038 84.4359 60.8299 84.6839 59.9705C84.9392 59.1505 85.241 58.3625 85.5429 57.5746C85.8623 56.6614 86.2283 55.7802 86.5477 54.867C86.8175 54.1256 87.1339 53.4163 87.4896 52.6998C87.927 51.7647 88.4576 50.8939 88.9416 49.9909C89.2798 49.3996 89.6647 48.8404 90.0567 48.3205C90.3774 47.8545 90.6981 47.3885 91.1658 47.058C91.4907 46.8352 91.8302 46.6912 92.1449 46.633C92.5776 46.5531 92.9927 46.5984 93.4369 46.8011C94.1535 47.1568 94.7738 47.6524 95.1159 48.4027C95.3967 49.0423 95.6383 49.6892 95.7618 50.3579L95.82 50.6726C95.9072 51.1446 95.8691 51.5991 95.917 52.0783C95.9892 53.57 96.1008 55.0545 96.055 56.568C96.043 57.3837 95.9989 58.2461 96.0263 59.0546C96.0536 59.8631 96.0737 60.6322 96.0151 61.4159C95.9868 62.8042 95.9658 64.2317 95.8983 65.6272C95.8234 66.9834 95.8418 68.4037 95.7276 69.7671C95.6134 71.1306 95.4919 72.4547 95.3705 73.7788C95.3016 74.7271 95.2721 75.6681 95.196 76.5771C95.1096 77.6506 95.1091 78.749 95.1407 79.8007C95.1232 79.926 95.145 80.044 95.1668 80.162C95.2104 80.398 95.3181 80.5408 95.5511 80.7012C95.7375 80.8294 95.838 80.9329 95.8598 81.0509C95.8816 81.1689 95.8641 81.2942 95.8145 81.466C95.7897 81.552 95.7256 81.6452 95.708 81.7705C95.5199 82.2933 95.2095 82.5948 94.6981 82.6892C94.5801 82.711 94.4621 82.7328 94.3369 82.7153C93.693 82.7529 93.2342 82.4716 92.8892 81.9252C92.6053 81.4895 92.4643 80.9461 92.3625 80.3954L92.159 79.294C91.9265 78.0353 91.8513 76.7476 91.8299 75.5312C91.7958 73.585 91.6043 71.6679 91.6095 69.7144C91.6014 68.1295 91.6399 66.5767 91.7571 65.0093C91.8392 63.6925 91.8033 62.3975 91.932 61.1127C92.0082 60.2037 92.045 59.302 92.089 58.4397C92.1173 57.0514 92.2315 55.688 92.2597 54.2998C92.2978 53.8453 92.2892 53.3587 92.2807 52.8722C92.2794 52.425 92.3248 52.0098 92.2841 51.5699C92.2623 51.4519 92.2871 51.366 92.2726 51.2873C92.2653 51.248 92.2508 51.1693 92.2042 51.1372ZM110.088 76.673C110.423 76.2857 110.665 75.8342 110.915 75.4221C111.52 74.2933 112.024 73.0612 112.536 71.8683C112.991 70.808 113.492 69.7798 113.947 68.7195L113.94 68.6802C114.068 68.4938 114.172 68.3933 114.329 68.3642C114.368 68.357 114.408 68.3497 114.454 68.3818C114.58 68.3993 114.641 68.51 114.67 68.6674C114.684 68.746 114.706 68.864 114.681 68.95C114.508 69.5515 114.295 70.1603 114.082 70.7692C113.542 72.2519 113.049 73.7667 112.377 75.1925C112.036 75.9877 111.702 76.8223 111.174 77.4892C110.943 77.7761 110.664 78.0309 110.318 78.1357L110.239 78.1502C109.649 78.2592 109.104 77.9531 108.673 77.3819C108.389 76.9462 108.224 76.4887 108.05 75.9919C107.848 75.3377 107.678 74.637 107.555 73.9683C107.482 73.575 107.449 73.1744 107.376 72.781C107.273 71.7831 107.177 70.8246 107.192 69.8049C107.224 69.7583 107.217 69.7189 107.202 69.6403C107.084 69.6621 107.067 69.7873 107.035 69.8339C106.647 70.5971 106.338 71.3457 106.029 72.0943C105.467 73.4591 104.985 74.8092 104.369 76.1025C104.159 76.5074 103.942 76.873 103.686 77.2458C103.333 77.7584 102.929 77.9957 102.497 78.0756C101.867 78.1919 101.158 77.8755 100.67 77.4368C99.9275 76.7198 99.4778 75.8266 99.2101 74.8185C99.1127 74.5111 99.0473 74.1571 98.9891 73.8424C98.7784 72.7017 98.7322 71.5713 98.7647 70.4263C98.787 69.446 99.0132 68.4686 99.2467 67.5306C99.5473 66.2954 100.12 65.2133 100.858 64.1415C101.531 63.1628 102.445 62.3839 103.589 61.9692C103.896 61.8717 104.164 61.7815 104.479 61.7234C105.619 61.5126 106.729 61.7957 107.705 62.673C107.798 62.7371 107.852 62.8085 108.009 62.7795L108.088 62.7649C108.27 62.6499 108.42 62.5815 108.578 62.5525C109.246 62.4289 109.827 62.9317 110.147 63.5641C110.223 63.7535 110.299 63.9429 110.335 64.1396C110.371 64.3362 110.368 64.5402 110.365 64.7441C110.329 65.6458 110.135 66.5766 110.019 67.4928C109.798 69.1606 109.585 70.8678 109.576 72.578C109.622 73.7084 109.668 74.8388 109.886 76.0189L109.959 76.4122C109.973 76.4909 109.988 76.5696 110.088 76.673ZM106.811 65.3195C106.686 65.302 106.568 65.3238 106.45 65.3456C106.096 65.411 105.842 65.5798 105.556 65.7953C104.907 66.2408 104.364 66.8291 103.955 67.4742C102.615 69.4708 102.003 71.6586 102.038 74.052C102.071 74.4526 102.09 74.7745 102.163 75.1679L102.235 75.5612C102.264 75.7185 102.318 75.7899 102.397 75.7754C102.476 75.7609 102.554 75.7463 102.618 75.6531C102.858 75.4056 103.089 75.1187 103.274 74.7998C103.911 73.6245 104.455 72.385 104.867 71.0887C105.239 69.7997 105.611 68.5107 106.069 67.2464C106.321 66.6303 106.566 65.9749 106.811 65.3195ZM117.196 71.9429C117.392 71.4593 117.541 70.9437 117.697 70.4674C118.395 68.3045 119.18 66.1663 120.144 64.1172C120.769 62.6592 121.395 61.2013 122.199 59.8324C122.844 58.6964 123.574 57.5852 124.397 56.5382C124.693 56.1581 125.065 55.9674 125.419 55.902C126.009 55.793 126.664 56.038 127.135 56.6019C127.443 56.9517 127.641 57.3626 127.728 57.8346L127.765 58.0312C127.871 58.8252 127.93 59.5871 127.879 60.4101C127.748 62.346 127.453 64.2717 127.112 66.1653C126.82 67.887 126.528 69.6087 126.282 71.3625C126.212 71.8636 126.135 72.3253 126.097 72.7798C126.037 73.1163 126.048 73.3989 126.106 73.7135C126.201 74.2249 125.976 74.5511 125.622 74.6165C125.504 74.6383 125.34 74.628 125.168 74.5784C124.394 74.3552 124.049 73.8088 123.879 73.1081L123.836 72.8721C123.727 72.2821 123.775 71.663 123.823 71.0439C123.895 69.8917 124.006 68.7322 124.118 67.5727C124.263 65.7154 124.54 63.915 124.764 62.0432C124.862 61.2523 124.913 60.4293 124.996 59.5596C124.575 59.9222 124.326 60.3343 124.03 60.7144C122.694 62.5071 121.723 64.5169 120.798 66.5589C119.97 68.461 119.353 70.4055 118.783 72.382C118.453 73.4598 118.17 74.5697 117.847 75.6869C117.798 75.8588 117.716 76.0772 117.667 76.2491C117.486 76.8113 117.136 77.12 116.703 77.1999C116.389 77.2581 116.013 77.2055 115.655 77.0276C115.21 76.8249 114.862 76.4825 114.618 76.0395C114.121 75.1143 113.854 74.1061 113.672 73.1228L113.505 72.2181C113.162 69.9222 113.181 67.6002 113.364 65.2885C113.558 63.2593 113.831 61.2157 114.191 59.1968C114.684 56.5837 115.178 53.9705 115.922 51.3925C116.45 49.6271 117.024 47.8939 117.864 46.2744C118.195 45.6438 118.658 45.07 119.183 44.607C119.461 44.3522 119.762 44.2154 120.076 44.1572C121.02 43.9828 121.92 44.6708 122.262 45.4211C122.331 45.5712 122.406 45.7606 122.435 45.9179C122.508 46.3113 122.463 46.7264 122.292 47.124C121.958 47.9586 121.538 48.7683 121.204 49.6029C120.415 51.4977 119.838 53.4349 119.393 55.429C118.937 57.5877 118.489 59.7857 118.198 61.9546C117.978 63.6224 117.796 65.283 117.654 66.9363C117.565 68.2138 117.422 69.4199 117.286 70.6654C117.24 71.0805 117.195 71.4956 117.157 71.9501L117.196 71.9429ZM134.862 61.4386C134.92 61.7533 134.86 62.0897 134.707 62.3621C134.511 62.8456 134.395 63.3146 134.285 63.823C133.944 65.7166 133.649 67.6422 133.511 69.5388C133.501 69.7034 133.53 69.8608 133.48 70.0326L133.502 70.1506C133.524 70.2686 133.585 70.3794 133.725 70.4756C133.997 70.6286 134.159 70.8428 134.217 71.1575C134.253 71.3542 134.265 71.6368 134.19 71.8946C134.027 72.3315 133.645 72.6868 133.134 72.7813L133.055 72.7958C131.721 72.839 130.62 71.9441 130.193 70.5178C130.157 70.3211 130.089 70.1711 130.052 69.9744C129.929 69.3057 129.923 68.6152 129.957 67.9175C130.019 65.8315 130.371 63.7733 130.723 61.7151C130.793 61.214 130.935 60.6591 131.216 60.2003C131.49 59.7022 131.854 59.4722 132.248 59.3996C132.523 59.3487 132.813 59.3765 133.117 59.483C133.844 59.6741 134.379 60.1448 134.713 60.8558C134.721 60.8952 134.774 60.9666 134.789 61.0452L134.862 61.4386ZM132.183 56.8488C132.089 56.3375 132.127 55.883 132.15 55.3499C132.187 54.4482 132.388 53.5567 132.715 52.6828C132.797 52.4644 132.925 52.278 133.093 52.0843C133.285 51.8047 133.585 51.6679 133.861 51.617C134.215 51.5516 134.59 51.6042 134.885 51.8753C135.265 52.1711 135.534 52.5281 135.614 52.9608C135.658 53.1968 135.622 53.4474 135.548 53.7052C135.491 53.8377 135.474 53.963 135.503 54.1203C135.51 54.1597 135.564 54.2311 135.578 54.3097C135.654 54.4991 135.73 54.6885 135.766 54.8852C135.882 55.5146 135.763 56.1875 135.557 56.8357C135.386 57.2333 135.216 57.6309 134.92 58.011C134.656 58.3444 134.37 58.5599 134.056 58.6181C133.662 58.6907 133.233 58.5667 132.845 58.2315C132.458 57.8963 132.321 57.5962 132.212 57.0062L132.183 56.8488Z" fill="white"/>
<path d="M15.0075 56.2279C15.1821 55.9369 15.1938 55.5876 15.2055 55.2384C15.4735 51.9554 15.8813 48.6376 16.4986 45.3663C16.8131 43.655 17.1043 41.8506 17.5119 40.116C18.164 37.5782 18.758 35.0054 19.6663 32.5025C20.1554 31.0939 20.691 29.6737 21.2848 28.2884C21.6924 27.3454 22.1698 26.484 22.6472 25.6225C23.9746 23.0149 25.6046 20.6285 27.6072 18.5448C28.5153 17.6252 29.4467 16.7987 30.5993 16.2633C30.8671 16.1469 31.0999 16.0887 31.3793 16.0189C33.0092 15.6116 34.7554 16.0658 35.8962 17.265C36.8391 18.2662 37.3628 19.3722 37.6771 20.6296C37.7818 21.0487 37.8749 21.4212 37.9214 21.8054C38.2123 23.7612 38.119 25.7636 37.6182 27.7194C37.1524 29.8148 36.4188 31.8288 35.3708 33.7729C34.0202 36.2873 32.4367 38.6621 30.6786 40.9321C28.8739 43.2137 27.0692 45.4953 25.2879 47.8701C24.6242 48.7781 23.9838 49.7792 23.553 50.8269C23.3317 51.3275 23.2153 51.8514 23.1919 52.3519C23.2036 52.5964 23.2035 52.7943 23.2617 53.0272C23.4014 53.586 23.8088 54.0284 24.3792 54.3311C25.8577 55.0996 27.4642 55.3908 29.0824 55.3327C29.6761 55.3328 30.2466 55.2397 30.8054 55.1001C31.3176 54.9721 31.8182 54.7975 32.2956 54.5298C33.4365 53.9478 34.3679 53.1213 35.0549 52.1085C35.4507 51.5148 35.7884 50.8862 36.0795 50.2692C36.2425 49.9316 36.487 49.7221 36.7199 49.6639C36.9527 49.6057 37.1622 49.6523 37.43 49.7338C37.8142 49.8852 38.0702 50.1181 38.1633 50.4906C38.1983 50.6303 38.1982 50.8282 38.1517 51.0378C37.418 53.2496 36.2886 55.2635 34.2396 56.5672C33.5992 56.9746 32.9356 57.2889 32.1905 57.4751L29.9087 58.0453C29.3965 58.1734 28.8377 58.1151 28.2905 58.1034C26.1135 58.1032 23.9947 57.7421 22.1205 56.5778C20.7585 55.6813 19.8855 54.5636 19.548 53.2131C19.3618 52.468 19.3386 51.5832 19.5133 50.6985C19.7579 49.4994 20.2935 48.475 20.9339 47.4739C21.7955 46.1701 22.7037 44.8546 23.6933 43.6673C24.3686 42.8058 25.0555 41.991 25.7425 41.1761C26.965 39.7327 28.0594 38.1728 29.2121 36.6478C30.3881 35.0181 31.3312 33.2486 32.2045 31.3977C33.334 28.9879 34.1375 26.4618 34.3007 23.7493C34.3357 22.8994 34.3125 22.0146 34.103 21.1764L33.9866 20.7107C33.9401 20.5245 33.8819 20.2916 33.7888 20.117C33.5443 19.7328 33.4629 19.6047 33.0903 19.6978L32.8575 19.756C32.3569 19.9306 31.9261 20.1867 31.507 20.4893C30.2961 21.3856 29.2716 22.4333 28.3169 23.5625C26.2794 25.9023 24.7773 28.603 23.4965 31.3969C22.367 33.8066 21.4704 36.3561 20.6785 38.9288C20.2593 40.4189 19.8517 41.9556 19.4907 43.4806C18.9899 45.6343 18.6055 47.8578 18.2095 50.0348C18.0581 51.2106 17.9532 52.3748 17.8017 53.5506C17.5804 55.4365 17.4172 57.3574 17.4054 59.2899C17.3121 61.4902 17.2769 63.7254 17.4281 65.914C17.4629 66.6475 17.5094 67.4275 17.4512 68.1842C17.4395 68.9292 16.997 69.5346 16.3916 69.6858L16.2519 69.7208C15.6815 69.8138 15.1227 69.7556 14.5523 69.4528C14.0866 69.1734 13.6559 68.8358 13.33 68.3235C12.7014 67.3921 12.2009 66.3792 11.8285 65.2849C11.5608 64.4117 11.2466 63.5502 11.0254 62.6654L10.9091 62.1997C10.6065 60.7911 10.2923 59.3358 10.0829 57.9039C9.83855 56.3322 9.62914 54.7024 9.57108 53.0842C9.41997 50.4997 9.31542 47.9036 9.30401 45.2842C9.29266 42.0711 9.47921 38.858 9.6192 35.6565C9.75922 32.0592 10.0855 28.4154 10.6796 24.8531C10.796 24.1313 10.9707 23.4445 11.2502 22.7809C11.5296 22.1174 11.9371 21.7682 12.4494 21.6402C12.9151 21.5238 13.4273 21.5937 13.9977 21.8964C14.6845 22.269 15.0687 22.8162 15.2432 23.5147C15.3363 23.8873 15.3829 24.2714 15.3013 24.7371C15.1033 26.1225 14.9751 27.5893 14.8353 29.0096C14.5556 31.8501 14.567 34.6674 14.5318 37.4964C14.5433 39.1262 14.4617 40.7793 14.4848 42.4557C14.4963 44.8772 14.4727 47.3569 14.5889 49.8016C14.6586 51.8622 14.8331 53.9461 14.9609 56.0416L15.0075 56.2279ZM45.3887 40.3235C45.4818 40.696 45.4352 41.1035 45.2721 41.4411C45.0742 42.0348 44.9694 42.6052 44.8762 43.2222C44.6082 45.5156 44.3984 47.8439 44.375 50.1257C44.3749 50.3236 44.4215 50.5099 44.3749 50.7194L44.4098 50.8592C44.4447 50.9989 44.5262 51.1269 44.7008 51.2317C45.0384 51.3947 45.248 51.6392 45.3411 52.0118C45.3992 52.2446 45.4341 52.5822 45.3643 52.8965C45.2012 53.432 44.7704 53.886 44.1651 54.0373L44.0719 54.0606C42.477 54.2118 41.0917 53.2221 40.4749 51.5457C40.4167 51.3128 40.3236 51.1382 40.2654 50.9053C40.0675 50.1137 40.0094 49.2871 39.9978 48.4489C39.9166 45.9459 40.1845 43.4546 40.4525 40.9633C40.4991 40.358 40.6273 39.6828 40.93 39.1124C41.2211 38.4954 41.6402 38.1927 42.1059 38.0763C42.4319 37.9949 42.7811 38.0066 43.1537 38.1114C44.0384 38.2861 44.7136 38.81 45.1675 39.6366C45.1792 39.6832 45.249 39.7647 45.2723 39.8578L45.3887 40.3235ZM41.8384 35.0262C41.6871 34.4208 41.6988 33.8737 41.6872 33.2334C41.664 32.1507 41.8388 31.068 42.1648 29.997C42.2463 29.7293 42.3861 29.4964 42.5724 29.252C42.7819 28.9027 43.1312 28.7165 43.4572 28.635C43.8763 28.5303 44.3303 28.5653 44.7028 28.868C45.1801 29.194 45.5293 29.6015 45.6573 30.1137C45.7272 30.3931 45.7038 30.6958 45.634 31.0101C45.5757 31.1731 45.5641 31.3245 45.6106 31.5107C45.6223 31.5573 45.6921 31.6388 45.7154 31.7319C45.8202 31.9531 45.9249 32.1743 45.9831 32.4072C46.1693 33.1523 46.0761 33.9672 45.8781 34.7588C45.7034 35.2477 45.5288 35.7367 45.2028 36.2139C44.9117 36.633 44.5857 36.9124 44.2131 37.0055C43.7475 37.1219 43.2236 37.0054 42.7347 36.6328C42.2458 36.2603 42.0595 35.911 41.885 35.2125L41.8384 35.0262ZM62.0122 49.1319C62.3848 48.643 62.641 48.0842 62.9088 47.572C63.5492 46.1751 64.0616 44.6617 64.5856 43.1949C65.0514 41.8911 65.5754 40.6222 66.0411 39.3183L66.0295 39.2718C66.1692 39.0389 66.2857 38.9109 66.4719 38.8643C66.5185 38.8527 66.5651 38.8411 66.6233 38.876C66.7746 38.8876 66.8561 39.0157 66.9026 39.202C66.9259 39.2951 66.9608 39.4348 66.9375 39.5396C66.7745 40.273 66.5649 41.0181 66.3553 41.7631C65.8196 43.5792 65.3421 45.4302 64.6434 47.188C64.2941 48.1659 63.9564 49.1903 63.3742 50.0285C63.1181 50.3893 62.8037 50.7153 62.3963 50.8666L62.3031 50.8899C61.6046 51.0644 60.9294 50.7384 60.3707 50.0864C59.9982 49.5858 59.7654 49.0502 59.521 48.4681C59.23 47.6997 58.974 46.8732 58.7761 46.0815C58.6597 45.6158 58.5899 45.1385 58.4736 44.6728C58.2758 43.4854 58.0896 42.3445 58.0315 41.1221C58.0664 41.0639 58.0548 41.0173 58.0315 40.9242C57.8918 40.9591 57.8801 41.1104 57.8452 41.1686C57.4377 42.1116 57.1233 43.0312 56.8089 43.9509C56.2383 45.6273 55.7608 47.2803 55.1204 48.8752C54.8991 49.3758 54.6663 49.8298 54.3868 50.2954C54.0026 50.9357 53.5369 51.25 53.0246 51.378C52.2796 51.5642 51.4065 51.2381 50.7895 50.7491C49.8466 49.9458 49.2413 48.9096 48.8456 47.7221C48.7059 47.3612 48.6012 46.9421 48.5081 46.5695C48.1706 45.2191 48.031 43.8686 47.9846 42.4949C47.9381 41.3191 48.1361 40.1316 48.3458 38.9908C48.6137 37.489 49.2192 36.1503 50.0226 34.8116C50.7561 33.5892 51.7923 32.5881 53.1311 32.0062C53.492 31.8665 53.8064 31.7385 54.1789 31.6454C55.5294 31.3079 56.8798 31.5641 58.1137 32.5421C58.2302 32.612 58.3 32.6935 58.4863 32.6469L58.5794 32.6237C58.789 32.4724 58.9636 32.3792 59.1499 32.3327C59.9415 32.1348 60.6749 32.6937 61.1056 33.4272C61.2103 33.6484 61.3151 33.8696 61.3733 34.1024C61.4315 34.3353 61.4431 34.5797 61.4547 34.8242C61.4779 35.9069 61.3148 37.0361 61.2449 38.1421C61.105 40.1561 60.9767 42.2167 61.093 44.2656C61.2326 45.6161 61.3721 46.9665 61.7213 48.3635L61.8376 48.8292C61.8609 48.9224 61.8842 49.0155 62.0122 49.1319ZM57.2403 35.7785C57.089 35.7668 56.9493 35.8017 56.8096 35.8366C56.3905 35.9414 56.0994 36.1625 55.7734 36.4419C55.0283 37.0239 54.4229 37.7689 53.9804 38.5722C52.525 41.0634 51.9543 43.7293 52.1752 46.5932C52.245 47.0705 52.2916 47.4547 52.4079 47.9203L52.5243 48.386C52.5709 48.5723 52.6407 48.6538 52.7338 48.6305C52.827 48.6072 52.9201 48.584 52.99 48.4675C53.2578 48.1532 53.5139 47.7924 53.7119 47.3966C54.3872 45.9414 54.9461 44.4164 55.3421 42.8332C55.6915 41.2616 56.0409 39.69 56.4951 38.1417C56.7512 37.385 56.9958 36.5817 57.2403 35.7785ZM76.0207 39.1992C75.8227 39.793 75.6131 40.3401 75.4501 40.8756C75.1124 41.9 74.7514 42.8313 74.3438 43.7743C73.7733 45.0548 73.1911 46.2888 72.3993 47.4762C71.922 48.1397 71.2467 48.6053 70.4551 48.8032C69.71 48.9894 68.9067 48.7448 68.2432 48.2674C67.2304 47.5805 66.6251 46.5443 66.1945 45.415C66.0432 45.0076 65.8802 44.5535 65.7755 44.1344L65.7057 43.855C65.31 42.2717 65.3101 40.6884 65.3569 39.0935C65.4501 37.2891 65.9043 35.5428 66.6263 33.8782C67.3133 32.2717 68.2447 30.8514 69.6069 29.7689C70.224 29.2684 70.841 28.9657 71.5395 28.7912C72.1449 28.6399 72.8318 28.6166 73.5768 28.8263C73.635 28.8612 73.7398 28.8845 73.7864 28.8729L73.8795 28.8496C73.9843 28.675 73.9145 28.3956 73.9145 28.1976C73.9032 24.5887 74.1945 21.0031 74.7769 17.3942C75.0215 15.9972 75.3011 14.542 75.8483 13.1684C76.0463 12.5747 76.3374 11.9577 76.6867 11.3756C76.8963 11.0264 77.2223 10.747 77.5599 10.5142C77.688 10.4327 77.7811 10.4095 77.9208 10.3745C78.3399 10.2698 78.759 10.363 79.1548 10.5609C79.4924 10.7239 79.7369 10.9102 79.9115 11.2129C80.2141 11.6321 80.3771 12.0861 80.4818 12.5052C80.5749 12.8777 80.6214 13.2619 80.668 13.6461C80.7726 15.8464 80.6327 18.0583 80.3414 20.2586C80.0618 22.5054 79.6774 24.7289 79.2465 26.9641C78.9204 28.6288 78.4313 30.2353 78.047 31.8652C77.8956 32.6451 77.7092 33.4833 77.4647 34.2866C77.2667 34.8803 77.2666 35.474 77.4179 36.0794L77.6041 36.8245C77.8369 37.7558 78.1046 38.629 78.5702 39.5022C78.7448 39.8049 78.9543 40.0494 79.2104 40.2822C79.5247 40.55 79.7924 40.6315 80.1184 40.5501C80.2581 40.5151 80.3513 40.4919 80.4793 40.4104C81.2477 39.9215 81.8764 39.2696 82.3771 38.5013C83.1223 37.3256 83.6463 36.0567 84.0655 34.7645C84.0771 34.6131 84.1004 34.5084 84.1703 34.3919C84.2052 34.3337 84.2401 34.2755 84.3333 34.2523L84.4264 34.229C84.5661 34.1941 84.636 34.2756 84.7174 34.4036L84.7523 34.5433C84.7873 34.683 84.7872 34.881 84.729 35.0439C84.6242 35.6144 84.4728 36.1964 84.2981 36.6854C83.7625 38.1056 83.1104 39.456 82.1673 40.6317C81.8996 40.946 81.6201 41.2138 81.3407 41.4815C81.0729 41.7958 80.7237 41.982 80.3977 42.0635C79.932 42.1799 79.3616 42.075 78.8726 41.9004C77.953 41.586 77.2778 40.8641 76.6958 40.119C76.4746 39.8279 76.3 39.5252 76.0207 39.1992ZM74.2516 33.3084C73.7976 33.4713 73.4367 33.611 73.1573 33.8787C72.6333 34.356 72.2258 34.9031 71.8882 35.5317C71.306 36.5678 70.945 37.697 70.6771 38.803C70.2462 40.6423 69.8503 42.4235 69.8268 44.3094C69.85 44.7984 69.8733 45.2873 69.9897 45.753C70.0711 46.079 70.1992 46.1954 70.3854 46.1488C70.432 46.1372 70.5717 46.1023 70.6532 46.0325C70.9559 45.8579 71.2004 45.6483 71.3867 45.4039C72.1668 44.5657 72.6674 43.5995 73.2147 42.6217C74.0297 41.1316 74.5538 39.4669 75.1476 37.8837C75.2408 37.6625 75.2408 37.4646 75.1943 37.2783C75.0197 36.7777 74.8567 36.3236 74.7404 35.858C74.624 35.3923 74.5425 34.8684 74.4727 34.3911C74.4727 34.1932 74.4378 34.0535 74.3913 33.8672L74.2516 33.3084ZM76.9876 31.5857C77.0575 31.4692 77.0575 31.4692 77.104 31.4576C77.2438 30.829 77.3952 30.2469 77.5349 29.6183C78.3036 26.3586 78.8627 23.0524 79.0725 19.7346C79.1891 18.0233 79.2591 16.3236 79.073 14.5889C79.0614 14.3445 79.0032 14.1116 78.945 13.8788C78.9101 13.7391 78.8635 13.5528 78.7704 13.3782C78.5608 13.5295 78.5142 13.739 78.4677 13.9486C77.9203 15.916 77.5709 17.8834 77.3379 19.9207L77.0582 23.5529C76.9183 25.7648 76.8715 27.9534 76.8713 30.1304C76.8829 30.5728 76.8596 31.0734 76.9876 31.5857Z" fill="white"/>
</svg>
